<mxfile host="app.diagrams.net" modified="2021-09-01T11:24:15.055Z" agent="5.0 (X11)" etag="rUIPLVI3PXC38mGjfn4Q" version="15.0.4" type="github">
  <diagram name="Page-1" id="b5b7bab2-c9e2-2cf4-8b2a-24fd1a2a6d21">
    <mxGraphModel dx="1125" dy="661" grid="1" gridSize="10" guides="1" tooltips="1" connect="1" arrows="1" fold="1" page="1" pageScale="1" pageWidth="827" pageHeight="1169" background="none" math="0" shadow="0">
      <root>
        <mxCell id="0" />
        <mxCell id="1" parent="0" />
        <mxCell id="okRMZON9XdHedOgnp8FK-8" style="edgeStyle=orthogonalEdgeStyle;curved=1;rounded=0;orthogonalLoop=1;jettySize=auto;html=1;entryX=0;entryY=0.5;entryDx=0;entryDy=0;endArrow=none;endFill=0;" edge="1" parent="1" source="okRMZON9XdHedOgnp8FK-1" target="okRMZON9XdHedOgnp8FK-7">
          <mxGeometry relative="1" as="geometry">
            <Array as="points">
              <mxPoint x="300" y="770" />
              <mxPoint x="300" y="700" />
            </Array>
          </mxGeometry>
        </mxCell>
        <mxCell id="okRMZON9XdHedOgnp8FK-24" style="edgeStyle=orthogonalEdgeStyle;rounded=0;orthogonalLoop=1;jettySize=auto;html=1;entryX=0;entryY=0.5;entryDx=0;entryDy=0;startArrow=none;startFill=0;endArrow=none;endFill=0;curved=1;" edge="1" parent="1" source="okRMZON9XdHedOgnp8FK-1" target="okRMZON9XdHedOgnp8FK-21">
          <mxGeometry relative="1" as="geometry">
            <Array as="points">
              <mxPoint x="360" y="770" />
            </Array>
          </mxGeometry>
        </mxCell>
        <mxCell id="okRMZON9XdHedOgnp8FK-33" style="edgeStyle=orthogonalEdgeStyle;curved=1;rounded=0;orthogonalLoop=1;jettySize=auto;html=1;entryX=0;entryY=0.5;entryDx=0;entryDy=0;startArrow=none;startFill=0;endArrow=open;endFill=0;" edge="1" parent="1" source="okRMZON9XdHedOgnp8FK-1" target="okRMZON9XdHedOgnp8FK-32">
          <mxGeometry relative="1" as="geometry">
            <Array as="points">
              <mxPoint x="300" y="770" />
              <mxPoint x="300" y="840" />
            </Array>
          </mxGeometry>
        </mxCell>
        <mxCell id="okRMZON9XdHedOgnp8FK-1" value="Logged user" style="shape=umlActor;verticalLabelPosition=bottom;verticalAlign=top;html=1;outlineConnect=0;" vertex="1" parent="1">
          <mxGeometry x="170" y="740" width="30" height="60" as="geometry" />
        </mxCell>
        <mxCell id="okRMZON9XdHedOgnp8FK-17" style="edgeStyle=orthogonalEdgeStyle;curved=1;rounded=0;orthogonalLoop=1;jettySize=auto;html=1;entryX=0;entryY=0.5;entryDx=0;entryDy=0;endArrow=none;endFill=0;dashed=1;startArrow=open;startFill=0;exitX=1;exitY=0.5;exitDx=0;exitDy=0;" edge="1" parent="1" source="okRMZON9XdHedOgnp8FK-7" target="okRMZON9XdHedOgnp8FK-11">
          <mxGeometry relative="1" as="geometry">
            <Array as="points">
              <mxPoint x="540" y="700" />
              <mxPoint x="540" y="650" />
            </Array>
          </mxGeometry>
        </mxCell>
        <mxCell id="okRMZON9XdHedOgnp8FK-19" value="&amp;lt;&amp;lt;extend&amp;gt;&amp;gt;" style="edgeLabel;html=1;align=center;verticalAlign=middle;resizable=0;points=[];" vertex="1" connectable="0" parent="okRMZON9XdHedOgnp8FK-17">
          <mxGeometry x="0.1295" y="-5" relative="1" as="geometry">
            <mxPoint as="offset" />
          </mxGeometry>
        </mxCell>
        <mxCell id="okRMZON9XdHedOgnp8FK-18" style="edgeStyle=orthogonalEdgeStyle;curved=1;rounded=0;orthogonalLoop=1;jettySize=auto;html=1;entryX=0;entryY=0.5;entryDx=0;entryDy=0;endArrow=none;endFill=0;dashed=1;startArrow=open;startFill=0;" edge="1" parent="1" source="okRMZON9XdHedOgnp8FK-7" target="okRMZON9XdHedOgnp8FK-16">
          <mxGeometry relative="1" as="geometry">
            <Array as="points">
              <mxPoint x="540" y="700" />
              <mxPoint x="540" y="760" />
            </Array>
          </mxGeometry>
        </mxCell>
        <mxCell id="okRMZON9XdHedOgnp8FK-20" value="&amp;lt;&amp;lt;extend&amp;gt;&amp;gt;" style="edgeLabel;html=1;align=center;verticalAlign=middle;resizable=0;points=[];" vertex="1" connectable="0" parent="okRMZON9XdHedOgnp8FK-18">
          <mxGeometry x="0.2515" y="5" relative="1" as="geometry">
            <mxPoint y="-4" as="offset" />
          </mxGeometry>
        </mxCell>
        <mxCell id="okRMZON9XdHedOgnp8FK-7" value="Habit tracking" style="ellipse;whiteSpace=wrap;html=1;" vertex="1" parent="1">
          <mxGeometry x="360" y="670" width="120" height="60" as="geometry" />
        </mxCell>
        <mxCell id="okRMZON9XdHedOgnp8FK-31" value="&amp;lt;&amp;lt;extend&amp;gt;&amp;gt;" style="edgeStyle=orthogonalEdgeStyle;curved=1;rounded=0;orthogonalLoop=1;jettySize=auto;html=1;entryX=0.5;entryY=0;entryDx=0;entryDy=0;startArrow=none;startFill=0;endArrow=open;endFill=0;dashed=1;" edge="1" parent="1" source="okRMZON9XdHedOgnp8FK-11" target="okRMZON9XdHedOgnp8FK-16">
          <mxGeometry relative="1" as="geometry" />
        </mxCell>
        <mxCell id="okRMZON9XdHedOgnp8FK-11" value="Habit creation" style="ellipse;whiteSpace=wrap;html=1;" vertex="1" parent="1">
          <mxGeometry x="600" y="620" width="120" height="60" as="geometry" />
        </mxCell>
        <mxCell id="okRMZON9XdHedOgnp8FK-16" value="Habit usage" style="ellipse;whiteSpace=wrap;html=1;" vertex="1" parent="1">
          <mxGeometry x="600" y="730" width="120" height="60" as="geometry" />
        </mxCell>
        <mxCell id="okRMZON9XdHedOgnp8FK-21" value="Productivity check" style="ellipse;whiteSpace=wrap;html=1;" vertex="1" parent="1">
          <mxGeometry x="360" y="740" width="120" height="60" as="geometry" />
        </mxCell>
        <mxCell id="okRMZON9XdHedOgnp8FK-25" value="Guest" style="shape=umlActor;verticalLabelPosition=bottom;verticalAlign=top;html=1;outlineConnect=0;" vertex="1" parent="1">
          <mxGeometry x="160" y="1030" width="30" height="60" as="geometry" />
        </mxCell>
        <mxCell id="okRMZON9XdHedOgnp8FK-27" style="edgeStyle=orthogonalEdgeStyle;curved=1;rounded=0;orthogonalLoop=1;jettySize=auto;html=1;entryX=0;entryY=0.5;entryDx=0;entryDy=0;endArrow=open;endFill=0;" edge="1" parent="1" target="okRMZON9XdHedOgnp8FK-28" source="okRMZON9XdHedOgnp8FK-25">
          <mxGeometry relative="1" as="geometry">
            <mxPoint x="210" y="1050.0285714285715" as="sourcePoint" />
            <Array as="points">
              <mxPoint x="300" y="1060" />
              <mxPoint x="300" y="1010" />
            </Array>
          </mxGeometry>
        </mxCell>
        <mxCell id="okRMZON9XdHedOgnp8FK-28" value="Login" style="ellipse;whiteSpace=wrap;html=1;" vertex="1" parent="1">
          <mxGeometry x="380" y="980" width="120" height="60" as="geometry" />
        </mxCell>
        <mxCell id="okRMZON9XdHedOgnp8FK-29" style="edgeStyle=orthogonalEdgeStyle;rounded=0;orthogonalLoop=1;jettySize=auto;html=1;curved=1;entryX=0;entryY=0.5;entryDx=0;entryDy=0;endArrow=open;endFill=0;" edge="1" parent="1" target="okRMZON9XdHedOgnp8FK-30" source="okRMZON9XdHedOgnp8FK-25">
          <mxGeometry relative="1" as="geometry">
            <mxPoint x="220" y="1200.0285714285715" as="sourcePoint" />
            <Array as="points">
              <mxPoint x="300" y="1060" />
              <mxPoint x="300" y="1110" />
            </Array>
            <mxPoint x="350" y="1120" as="targetPoint" />
          </mxGeometry>
        </mxCell>
        <mxCell id="okRMZON9XdHedOgnp8FK-30" value="Registration" style="ellipse;whiteSpace=wrap;html=1;" vertex="1" parent="1">
          <mxGeometry x="380" y="1080" width="120" height="60" as="geometry" />
        </mxCell>
        <mxCell id="okRMZON9XdHedOgnp8FK-32" value="Logout" style="ellipse;whiteSpace=wrap;html=1;" vertex="1" parent="1">
          <mxGeometry x="360" y="810" width="120" height="60" as="geometry" />
        </mxCell>
      </root>
    </mxGraphModel>
  </diagram>
</mxfile>
